# xmcd CD database file
#
# Track frame offsets:
#	150
#	12135
#	27240
#	40337
#	52770
#	64502
#	78210
#	92272
#	105212
#	120202
#	133625
#	147337
#	160915
#	173875
#
# Disc length: 2514 seconds
#
# Revision: 0
# Processed by: cddbd v1.4PL0 Copyright (c) Steve Scherf et al.
# Submitted via: CDex 1.51
#
DISCID=9909d00e
DTITLE=Ella Fitzgerald - A-Tisket, A-Tasket
DYEAR=1900
DGENRE=Jazz
TTITLE0=A-Tisket, A-Tasket
TTITLE1=I Got A Guy
TTITLE2=Heart Of Mine
TTITLE3=If Only You Knew
TTITLE4=I Found My Yellow Basket
TTITLE5=Wacky Dust
TTITLE6=McPherson Is Rehearsin' (To Swing)
TTITLE7=F.D.R. Jones
TTITLE8=Undecided
TTITLE9='Tain't What You Do (It's The Way That Cha Do It)
TTITLE10=My Heart Belongs To Daddy
TTITLE11=Chew-Chew-Chew (Chew Your Bubble Gum)
TTITLE12=Little White Lies
TTITLE13=Stairway To The Stars
EXTD=
EXTT0=
EXTT1=
EXTT2=
EXTT3=
EXTT4=
EXTT5=
EXTT6=
EXTT7=
EXTT8=
EXTT9=
EXTT10=
EXTT11=
EXTT12=
EXTT13=
PLAYORDER=
